<svg viewBox="0 0 22 17" xmlns="http://www.w3.org/2000/svg" fill-rule="evenodd" clip-rule="evenodd" stroke-linejoin="round" stroke-miterlimit="1.414"><path d="M2.221 11.842h.448l.498.801.498-.801h.449v1.894H3.7V12.5l-.533.809h-.01l-.528-.801v1.228h-.408v-1.894zM4.588 11.842h.417v1.894h-.417zM5.395 12.795v-.006c0-.538.405-.979.987-.979.357 0 .571.119.747.292l-.265.306c-.146-.133-.295-.214-.485-.214-.319 0-.549.265-.549.59v.005c0 .325.225.595.549.595.217 0 .349-.086.498-.222l.265.268a.966.966 0 0 1-.776.338.956.956 0 0 1-.971-.973zM8.314 12.762c.203 0 .319-.108.319-.268v-.005c0-.179-.124-.271-.327-.271h-.414v.544h.422zm-.838-.92h.865c.241 0 .428.068.552.192a.594.594 0 0 1 .162.433v.006a.59.59 0 0 1-.405.587l.462.676h-.487l-.406-.606h-.327v.606h-.416v-1.894zM10.925 12.795v-.006c0-.324-.238-.595-.573-.595-.336 0-.568.265-.568.59v.005c0 .325.238.595.573.595.336 0 .568-.265.568-.589zm-1.577 0v-.006c0-.538.425-.979 1.009-.979.584 0 1.004.435 1.004.974v.005c0 .539-.425.979-1.009.979-.585 0-1.004-.435-1.004-.973zM11.732 11.842h.449l.498.801.498-.801h.449v1.894h-.414V12.5l-.533.809h-.011l-.527-.801v1.228h-.409v-1.894zM15.168 12.943l-.251-.614-.252.614h.503zm-.438-1.114h.384l.812 1.907h-.436l-.173-.425h-.801l-.173.425h-.425l.812-1.907zM16.416 12.226h-.576v-.384h1.569v.384h-.576v1.51h-.417v-1.51zM18.573 12.943l-.252-.614-.252.614h.504zm-.439-1.114h.384l.812 1.907h-.435l-.174-.425h-.8l-.174.425h-.424l.811-1.907z" fill="#231f20" fill-rule="nonzero"/><path fill="#71bf44" fill-rule="nonzero" d="M2.221 3.465h1.087v6.502H2.221zM7.627 8.275v-.32a2.982 2.982 0 0 0-1.068-.187c-.695 0-1.105.294-1.105.784v.017c0 .455.401.713.917.713.713 0 1.256-.41 1.256-1.007zm-3.233.339v-.018c0-1.015.802-1.514 1.951-1.514.525 0 .9.08 1.265.196v-.116c0-.668-.41-1.024-1.167-1.024-.526 0-.918.115-1.345.294l-.294-.847a4.088 4.088 0 0 1 1.781-.383c.704 0 1.23.187 1.559.526.348.338.508.837.508 1.452v2.788H7.601V9.38c-.321.383-.811.686-1.532.686-.882 0-1.675-.508-1.675-1.452z"/><path d="M10.412 2.684a.29.29 0 1 1-.581 0 .29.29 0 0 1 .581 0zM11.115 9.539s-.088.573-.659.573c-.527 0-.642-.573-.642-.573V3.46h1.301v6.079zm-.394-.609a.208.208 0 1 0 .001.415.208.208 0 0 0-.001-.415zm-.285-.941a.291.291 0 1 0 0 .583.291.291 0 0 0 0-.583zm-.32-4.13h-.143v5.325h.143V3.859z" fill="#71bf44"/><path d="M13.812 7.625v-.018c0-.908-.623-1.505-1.345-1.505-.73 0-1.372.606-1.372 1.505v.018c0 .9.642 1.506 1.372 1.506.739 0 1.345-.579 1.345-1.506zm-2.698-1.574c.347-.49.845-.884 1.611-.884 1.105 0 2.183.873 2.183 2.44v.018c0 1.559-1.069 2.441-2.183 2.441-.784 0-1.284-.395-1.614-.831" fill="#71bf44"/><path d="M15.638 9.353l.481-.73c.517.383 1.06.579 1.541.579.463 0 .731-.196.731-.508v-.018c0-.365-.499-.49-1.051-.659-.695-.196-1.47-.481-1.47-1.372v-.017c0-.9.739-1.443 1.674-1.443.588 0 1.23.204 1.729.534l-.428.766c-.454-.276-.935-.445-1.327-.445-.419 0-.659.204-.659.463v.018c0 .347.507.49 1.06.668.685.213 1.46.525 1.46 1.371v.018c0 .989-.766 1.479-1.746 1.479a3.249 3.249 0 0 1-1.995-.704z" fill="#71bf44" fill-rule="nonzero"/><script/></svg>